<?xml version="1.0" encoding="UTF-8"?><svg id="Layer_2" xmlns="http://www.w3.org/2000/svg" viewBox="0 0 44.82 2.2"><defs><style>.cls-1{fill:#fff;}</style></defs><g id="Layer_1-2"><g><path class="cls-1" d="M.43,1.88h.25V.32H.23v.22h-.23V.09H1.59v.44h-.23v-.22h-.45V1.88h.21v.23H.43v-.23Z"/><path class="cls-1" d="M3.12,.09h.7v.23h-.23V1.88h.23v.23h-.7v-.23h.23v-.67h-1.09v.67h.23v.23h-.7v-.23h.23V.32h-.23V.09h.7v.23h-.23V.98h1.09V.32h-.23V.09Z"/><path class="cls-1" d="M4.02,1.88h.16V.32h-.16V.09h1.4v.44h-.23v-.22h-.77V.98h.89v.23h-.89v.67h.81v-.22h.23v.44h-1.44v-.23Z"/><path class="cls-1" d="M8.07,1.25v.74c-.08,.04-.16,.08-.25,.1-.09,.03-.18,.04-.28,.04-.14,0-.28-.03-.4-.08s-.23-.13-.33-.22-.17-.2-.22-.33-.08-.26-.08-.4,.03-.28,.08-.4c.05-.13,.13-.23,.22-.33s.2-.17,.33-.22,.26-.08,.4-.08c.1,0,.19,.01,.28,.04s.17,.06,.25,.11l-.13,.19c-.06-.03-.12-.06-.19-.08-.07-.02-.13-.03-.21-.03-.11,0-.21,.02-.31,.06-.09,.04-.18,.1-.25,.17-.07,.07-.13,.16-.17,.26-.04,.1-.06,.2-.06,.31s.02,.21,.06,.31,.1,.18,.17,.25c.07,.07,.16,.13,.25,.17,.1,.04,.2,.06,.31,.06,.1,0,.19-.02,.28-.05v-.38h-.3v-.23h.54Z"/><path class="cls-1" d="M8.28,1.1c0-.14,.03-.27,.08-.4s.13-.24,.22-.33,.2-.17,.33-.22c.12-.05,.26-.08,.4-.08s.27,.03,.4,.08c.13,.05,.24,.13,.33,.22,.09,.09,.17,.2,.22,.33s.08,.26,.08,.4-.03,.28-.08,.4c-.05,.12-.13,.23-.22,.33-.09,.09-.2,.17-.33,.22-.13,.05-.26,.08-.4,.08s-.28-.03-.4-.08c-.12-.05-.23-.13-.33-.22s-.17-.2-.22-.33c-.05-.12-.08-.26-.08-.4Zm.24,0c0,.11,.02,.21,.06,.31,.04,.1,.1,.18,.17,.25s.16,.13,.25,.17c.1,.04,.2,.06,.31,.06s.21-.02,.31-.06c.1-.04,.18-.1,.25-.17s.13-.16,.17-.25c.04-.1,.06-.2,.06-.31s-.02-.21-.06-.31c-.04-.1-.1-.18-.17-.25s-.16-.13-.25-.17c-.1-.04-.2-.06-.31-.06s-.21,.02-.31,.06c-.1,.04-.18,.1-.25,.17s-.13,.16-.17,.25c-.04,.1-.06,.2-.06,.31Z"/><path class="cls-1" d="M10.54,1.1c0-.14,.03-.27,.08-.4s.13-.24,.22-.33,.2-.17,.33-.22c.12-.05,.26-.08,.4-.08s.27,.03,.4,.08c.13,.05,.24,.13,.33,.22,.09,.09,.17,.2,.22,.33s.08,.26,.08,.4-.03,.28-.08,.4c-.05,.12-.13,.23-.22,.33-.09,.09-.2,.17-.33,.22-.13,.05-.26,.08-.4,.08s-.28-.03-.4-.08c-.12-.05-.23-.13-.33-.22s-.17-.2-.22-.33c-.05-.12-.08-.26-.08-.4Zm.24,0c0,.11,.02,.21,.06,.31,.04,.1,.1,.18,.17,.25s.16,.13,.25,.17c.1,.04,.2,.06,.31,.06s.21-.02,.31-.06c.1-.04,.18-.1,.25-.17s.13-.16,.17-.25c.04-.1,.06-.2,.06-.31s-.02-.21-.06-.31c-.04-.1-.1-.18-.17-.25s-.16-.13-.25-.17c-.1-.04-.2-.06-.31-.06s-.21,.02-.31,.06c-.1,.04-.18,.1-.25,.17s-.13,.16-.17,.25c-.04,.1-.06,.2-.06,.31Z"/><path class="cls-1" d="M12.8,1.87h.14V.32h-.14V.09h.6c.14,0,.27,.02,.39,.07,.12,.05,.23,.11,.32,.2,.09,.09,.17,.19,.22,.32,.05,.12,.08,.26,.08,.42,0,.11-.02,.23-.06,.35s-.1,.23-.19,.32c-.09,.1-.2,.18-.34,.24-.14,.06-.31,.09-.52,.09h-.51v-.23Zm.37-1.55V1.87h.2c.11,0,.22-.02,.32-.05,.1-.04,.18-.09,.25-.16s.13-.15,.17-.24c.04-.09,.06-.2,.06-.32s-.02-.23-.06-.32c-.04-.1-.1-.18-.17-.25s-.16-.12-.25-.16c-.1-.04-.2-.05-.32-.05h-.2Z"/><path class="cls-1" d="M15.49,1.88h.23c.13-.32,.27-.63,.4-.94,.13-.31,.27-.62,.4-.94,.13,.32,.27,.63,.4,.94s.27,.62,.4,.94h.24v.23h-.64v-.23h.16c-.04-.1-.08-.19-.12-.29s-.08-.19-.12-.28h-.63l-.24,.57h.17v.23h-.64v-.23Zm1.06-1.25l-.03-.1v.02s-.01,.02-.01,.03c0,.01,0,.03-.01,.04-.02,.06-.05,.11-.07,.16-.02,.05-.04,.1-.06,.15s-.04,.1-.06,.14h.44l-.19-.46Z"/><path class="cls-1" d="M17.75,1.88h.25V.32h-.25V.09h.33l1.39,1.51,.05,.07V.32h-.22V.09h.7v.23h-.25v1.88l-1.47-1.57-.05-.07V1.88h.22v.23h-.7v-.23Z"/><path class="cls-1" d="M20.21,1.87h.14V.32h-.14V.09h.6c.14,0,.27,.02,.39,.07,.12,.05,.23,.11,.32,.2,.09,.09,.17,.19,.22,.32,.05,.12,.08,.26,.08,.42,0,.11-.02,.23-.06,.35s-.1,.23-.19,.32c-.09,.1-.2,.18-.34,.24-.14,.06-.31,.09-.52,.09h-.51v-.23Zm.37-1.55V1.87h.2c.11,0,.22-.02,.32-.05,.1-.04,.18-.09,.25-.16,.07-.07,.13-.15,.17-.24,.04-.09,.06-.2,.06-.32s-.02-.23-.06-.32c-.04-.1-.1-.18-.17-.25-.07-.07-.16-.12-.25-.16-.1-.04-.2-.05-.32-.05h-.2Z"/><path class="cls-1" d="M23.33,1.88h.25V.32h-.45v.22h-.23V.09h1.59v.44h-.23v-.22h-.45V1.88h.21v.23h-.7v-.23Z"/><path class="cls-1" d="M26.01,.09h.7v.23h-.23V1.88h.23v.23h-.7v-.23h.23v-.67h-1.09v.67h.23v.23h-.7v-.23h.23V.32h-.23V.09h.7v.23h-.23V.98h1.09V.32h-.23V.09Z"/><path class="cls-1" d="M26.91,1.88h.16V.32h-.16V.09h1.4v.44h-.23v-.22h-.77V.98h.89v.23h-.89v.67h.81v-.22h.23v.44h-1.44v-.23Z"/><path class="cls-1" d="M29.42,1.88h.13V.32h-.13V.09h.66c.09,0,.18,0,.26,.03,.08,.02,.14,.05,.2,.09,.05,.04,.1,.09,.13,.16,.03,.06,.05,.14,.05,.23,0,.12-.03,.22-.08,.31s-.14,.15-.26,.18c.05,.01,.11,.03,.16,.06,.05,.03,.09,.06,.13,.1,.04,.04,.07,.09,.09,.15s.03,.12,.03,.19c0,.09-.02,.16-.05,.23-.04,.06-.08,.12-.15,.16-.06,.04-.13,.08-.21,.1-.08,.02-.16,.03-.24,.03h-.71v-.23Zm.37-1.56V.98h.31c.11,0,.2-.03,.27-.09s.1-.15,.1-.25c0-.11-.03-.19-.1-.24-.07-.05-.16-.07-.27-.07h-.31Zm0,.89v.67h.32c.06,0,.12,0,.17-.02s.1-.03,.14-.06,.07-.06,.09-.1,.03-.09,.03-.14c0-.06-.01-.11-.04-.16-.03-.04-.06-.08-.11-.11s-.09-.05-.15-.06c-.06-.01-.12-.02-.18-.02h-.28Z"/><path class="cls-1" d="M30.98,1.88h.16V.32h-.16V.09h1.4v.44h-.23v-.22h-.77V.98h.89v.23h-.89v.67h.81v-.22h.23v.44h-1.44v-.23Z"/><path class="cls-1" d="M32.62,1.88h.23c.13-.32,.27-.63,.4-.94s.27-.62,.4-.94c.13,.32,.27,.63,.4,.94s.27,.62,.4,.94h.24v.23h-.64v-.23h.16c-.04-.1-.08-.19-.12-.29-.04-.09-.08-.19-.12-.28h-.63l-.24,.57h.17v.23h-.64v-.23Zm1.06-1.25l-.03-.1v.02s-.01,.02-.01,.03c0,.01,0,.03-.01,.04-.02,.06-.05,.11-.07,.16-.02,.05-.04,.1-.06,.15-.02,.05-.04,.1-.06,.14h.44l-.19-.46Z"/><path class="cls-1" d="M34.89,.09h.7v.23h-.24V1.45c0,.07,.01,.14,.04,.19,.02,.06,.06,.1,.1,.14s.09,.07,.15,.09c.06,.02,.12,.03,.2,.03s.14,0,.2-.03c.06-.02,.11-.05,.15-.09,.04-.04,.08-.09,.1-.14,.02-.06,.04-.12,.04-.19V.32h-.24V.09h.7v.23h-.22V1.46c0,.11-.02,.21-.06,.29-.04,.08-.09,.15-.15,.21-.07,.06-.14,.1-.23,.13-.09,.03-.18,.04-.29,.04s-.2-.01-.29-.04c-.09-.03-.16-.07-.23-.13s-.12-.13-.15-.21c-.04-.08-.05-.18-.05-.29V.32h-.22V.09Z"/><path class="cls-1" d="M37.42,1.88h.25V.32h-.45v.22h-.23V.09h1.59v.44h-.23v-.22h-.45V1.88h.21v.23h-.7v-.23Z"/><path class="cls-1" d="M38.78,1.88h.23V.32h-.23V.09h.7v.23h-.23V1.88h.23v.23h-.7v-.23Z"/><path class="cls-1" d="M39.68,1.88h.16V.32h-.16V.09h1.4v.44h-.23v-.22h-.77V.98h.89v.23h-.89v.67h.3v.23h-.7v-.23Z"/><path class="cls-1" d="M41.28,.09h.7v.23h-.24V1.45c0,.07,.01,.14,.04,.19,.02,.06,.06,.1,.1,.14s.09,.07,.15,.09c.06,.02,.12,.03,.2,.03s.14,0,.2-.03c.06-.02,.11-.05,.15-.09,.04-.04,.08-.09,.1-.14,.02-.06,.04-.12,.04-.19V.32h-.24V.09h.7v.23h-.22V1.46c0,.11-.02,.21-.06,.29-.04,.08-.09,.15-.15,.21-.07,.06-.14,.1-.23,.13-.09,.03-.18,.04-.29,.04s-.2-.01-.29-.04c-.09-.03-.16-.07-.23-.13s-.12-.13-.15-.21c-.04-.08-.05-.18-.05-.29V.32h-.22V.09Z"/><path class="cls-1" d="M43.38,1.88h.16V.32h-.16V.09h.64v.23h-.24V1.88h.81v-.22h.23v.44h-1.44v-.23Z"/></g></g></svg>